<?xml version="1.0" encoding="utf-8"?>
<!-- Generator: Adobe Illustrator 21.0.2, SVG Export Plug-In . SVG Version: 6.00 Build 0)  -->
<svg version="1.1" id="Layer_1" xmlns="http://www.w3.org/2000/svg" xmlns:xlink="http://www.w3.org/1999/xlink" x="0px" y="0px"
	 viewBox="0 0 512 512" style="enable-background:new 0 0 512 512;" xml:space="preserve">
<style type="text/css">
	.st0{fill:#FFFFFF;}
	.st1{fill:none;stroke:#FFFFFF;stroke-width:49;stroke-miterlimit:10;}
</style>
<g>
	<g>
		<g>
			<circle class="st0" cx="256" cy="232.1" r="10.7"/>
			<circle class="st0" cx="256" cy="268.1" r="10.7"/>
			<path class="st0" d="M423.6,112.3c5.9-8.3,9.3-18.3,9.3-29.2V50.5c0-27.8-22.7-50.5-50.5-50.5h-6.9c-27.8,0-50.5,22.7-50.5,50.5
				v32.6c0,10.8,3.4,20.9,9.3,29.1h-33.5c5.8-8.2,9.3-18.3,9.3-29.1V50.5C310,22.7,287.3,0,259.5,0h-6.9C224.7,0,202,22.7,202,50.5
				v32.6c0,10.8,3.4,20.9,9.3,29.1h-33.5c5.8-8.2,9.3-18.3,9.3-29.1V50.5c0-27.8-22.7-50.5-50.5-50.5h-6.9
				c-27.8,0-50.5,22.7-50.5,50.5v32.6c0,10.9,3.5,21,9.3,29.2c-37.5,1.6-67.6,32.5-67.6,70.2v104.2c0,21.7,17.7,39.3,39.4,39.3
				c0.2,0,0.4,0,0.7,0v150.4c0,19.6,16,35.6,35.6,35.6h11.6c9.7,0,18.5-3.9,24.9-10.2c6.4,6.3,15.2,10.2,24.9,10.2h11.6
				c9.7,0,18.5-3.9,24.9-10.2c6.4,6.3,15.2,10.2,25,10.2h11.6c9.7,0,18.5-3.9,24.9-10.2c6.4,6.3,15.2,10.2,24.9,10.2h11.6
				c9.7,0,18.5-3.9,25-10.2c6.4,6.3,15.2,10.2,24.9,10.2H354c9.7,0,18.5-3.9,24.9-10.2c6.4,6.3,15.2,10.2,24.9,10.2h11.6
				c19.6,0,35.6-16,35.6-35.6V326c0.2,0,0.4,0,0.6,0c21.7,0,39.4-17.6,39.4-39.3V182.5C491.2,144.8,461.1,113.9,423.6,112.3z
				 M346.3,50.5c0-16.1,13.1-29.1,29.1-29.1h6.9c16.1,0,29.1,13.1,29.1,29.1v32.6c0,16.1-13.1,29.1-29.1,29.1h-6.9
				c-16.1,0-29.1-13.1-29.1-29.1V50.5z M223.4,50.5c0-16.1,13.1-29.1,29.1-29.1h6.9c16.1,0,29.1,13.1,29.1,29.1v32.6
				c0,16.1-13.1,29.1-29.1,29.1h-6.9c-16.1,0-29.1-13.1-29.1-29.1L223.4,50.5L223.4,50.5z M280.7,133.6L256,174.2l-24.7-40.6H280.7z
				 M100.5,50.5c0-16.1,13.1-29.1,29.1-29.1h6.9c16.1,0,29.1,13.1,29.1,29.1v32.6c0,16.1-13.1,29.1-29.1,29.1h-6.9
				c-16.1,0-29.1-13.1-29.1-29.1C100.5,83.1,100.5,50.5,100.5,50.5z M71.6,207.9c-5.9,0-10.7,4.8-10.7,10.7v0v86.1
				c-0.2,0-0.4,0-0.7,0c-10,0-18.1-8-18.1-17.9V182.5c0-27,22.1-48.9,49.2-48.9h72.3c-12.3,12.7-20,29.9-20,48.9v104.2
				c0,3.5,0.5,6.8,1.3,10l-12,6.1L82.3,277v-58.4v0C82.3,212.7,77.5,207.9,71.6,207.9z M183.9,476.4c0,7.9-6.4,14.3-14.3,14.3H158
				c-7.9,0-14.3-6.4-14.3-14.3V358.9c0-5.9-4.8-10.7-10.7-10.7c-5.9,0-10.7,4.8-10.7,10.7v117.5c0,7.9-6.4,14.3-14.3,14.3H96.6
				c-7.9,0-14.3-6.4-14.3-14.3V301l45.9,23.4c1.5,0.8,3.2,1.2,4.8,1.2c1.7,0,3.3-0.4,4.8-1.2l18.1-9.2c7.1,6.7,16.6,10.9,27.2,10.9
				c0.2,0,0.4,0,0.6,0L183.9,476.4L183.9,476.4z M306.8,476.4c0,7.9-6.4,14.3-14.3,14.3h-11.6c-7.9,0-14.3-6.4-14.3-14.3V358.9
				c0-5.9-4.8-10.7-10.7-10.7c-5.9,0-10.7,4.8-10.7,10.7v117.5c0,7.9-6.4,14.3-14.3,14.3h-11.6c-7.9,0-14.3-6.4-14.3-14.3V301.1
				l45.9,23.3c1.5,0.8,3.2,1.2,4.8,1.2c1.7,0,3.3-0.4,4.8-1.2l45.9-23.4L306.8,476.4L306.8,476.4z M317.5,207.9
				c-5.9,0-10.7,4.8-10.7,10.7v0V277L256,302.8l-50.8-25.7v-58.5v0c0-5.9-4.8-10.7-10.7-10.7s-10.7,4.8-10.7,10.7v0v86.1
				c-0.2,0-0.4,0-0.6,0c-10,0-18.1-8-18.1-17.9V182.5c0-24.3,18-44.6,41.5-48.3l40.3,66.1c1.9,3.2,5.4,5.1,9.1,5.1
				c3.7,0,7.2-1.9,9.1-5.1l40.3-66.1c23.5,3.7,41.5,23.9,41.5,48.3v104.2c0,9.9-8.1,17.9-18.1,17.9c-0.2,0-0.4,0-0.6,0v-86.1v0
				C328.2,212.7,323.4,207.9,317.5,207.9z M429.7,476.4c0,7.9-6.4,14.3-14.3,14.3h-11.6c-7.9,0-14.3-6.4-14.3-14.3V358.9
				c0-5.9-4.8-10.7-10.7-10.7c-5.9,0-10.7,4.8-10.7,10.7v117.5c0,7.9-6.4,14.3-14.3,14.3h-11.6c-7.9,0-14.3-6.4-14.3-14.3V326
				c0.2,0,0.4,0,0.6,0c10.5,0,20.1-4.1,27.2-10.9l18.1,9.2c1.5,0.8,3.2,1.2,4.8,1.2c1.7,0,3.3-0.4,4.8-1.2l45.9-23.4L429.7,476.4
				L429.7,476.4z M451.7,304.6c-0.2,0-0.4,0-0.6,0v-86.1v0c0-5.9-4.8-10.7-10.7-10.7c-5.9,0-10.7,4.8-10.7,10.7v0V277l-50.8,25.8
				l-12-6.1c0.8-3.2,1.3-6.6,1.3-10V182.5c0-19-7.6-36.2-20-48.9h72.3c27.1,0,49.2,21.9,49.2,48.9v104.2h0
				C469.8,296.6,461.7,304.6,451.7,304.6z"/>
		</g>
	</g>
</g>
<line class="st1" x1="-8" y1="-12.7" x2="523" y2="518.3"/>
</svg>
